<?xml version="1.0" encoding="UTF-8" standalone="no"?> <svg xmlns:inkscape="http://www.inkscape.org/namespaces/inkscape" xmlns:rdf="http://www.w3.org/1999/02/22-rdf-syntax-ns#" xmlns="http://www.w3.org/2000/svg" xmlns:xlink="http://www.w3.org/1999/xlink" xmlns:ns1="http://sozi.baierouge.fr" xmlns:cc="http://creativecommons.org/ns#" xmlns:dc="http://purl.org/dc/elements/1.1/" xmlns:sodipodi="http://sodipodi.sourceforge.net/DTD/sodipodi-0.dtd" id="svg2" sodipodi:docname="REQUEST-United-States-Flag-in-Wind.svg" viewBox="0 0 190.01 100" inkscape:version="0.48.4 r9939"><path id="path4154" d="m0 0h190v100h-190z" style="fill-rule:evenodd;color:#000000;fill:#ffffff" inkscape:connector-curvature="0"></path><path id="rect4156" style="fill-rule:evenodd;color:#000000;fill:#b22234" inkscape:connector-curvature="0" d="m0.00992 0v7.6875h190v-7.6875h-190zm0 15.375v7.6875h190v-7.6875h-190zm0 15.375v7.6875h190v-7.6875h-190zm0 15.375v7.7188h190v-7.7188h-190zm0 15.406v7.6875h190v-7.6875h-190zm0 15.375v7.6875h190v-7.6875h-190zm0 15.406v7.6875h190v-7.6875h-190z"></path><path id="path4180" style="fill-rule:evenodd;color:#000000;fill:#3c3b6e" inkscape:connector-curvature="0" d="m0 0h76v53.85h-76z"></path><g id="g4184" transform="translate(261.88 .00003)"><path id="path4186" style="fill-rule:evenodd;color:#000000;fill:#ffffff" sodipodi:type="star" sodipodi:sides="5" sodipodi:r1="8.86798" sodipodi:r2="3.3811791" sodipodi:arg1="1.0471976" sodipodi:arg2="1.6755161" transform="matrix(.36337 -.036418 .036476 .36279 -155.3 .35850)" inkscape:randomized="0" sodipodi:cy="-13.716982" sodipodi:cx="-274.52829" inkscape:rounded="4.888913e-008" inkscape:flatsided="false" d="m-270.09-6.0371-4.7874-4.3172-5.5804 3.2275 2.6266-5.8872-4.794-4.3099 6.4107 0.67875 2.6176-5.8912 1.3355 6.3067 6.4117 0.66895-5.5853 3.219z"></path><path id="path4188" style="fill-rule:evenodd;color:#000000;fill:#ffffff" sodipodi:type="star" d="m-270.09-6.0371-4.7874-4.3172-5.5804 3.2275 2.6266-5.8872-4.794-4.3099 6.4107 0.67875 2.6176-5.8912 1.3355 6.3067 6.4117 0.66895-5.5853 3.219z" sodipodi:r1="8.86798" inkscape:flatsided="false" transform="matrix(.36337 -.036418 .036476 .36279 -91.96 .35850)" sodipodi:arg2="1.6755161" sodipodi:arg1="1.0471976" inkscape:randomized="0" sodipodi:cy="-13.716982" sodipodi:cx="-274.52829" inkscape:rounded="4.888913e-008" sodipodi:r2="3.3811791" sodipodi:sides="5"></path><path id="path4190" style="fill-rule:evenodd;color:#000000;fill:#ffffff" sodipodi:type="star" d="m-270.09-6.0371-4.7874-4.3172-5.5804 3.2275 2.6266-5.8872-4.794-4.3099 6.4107 0.67875 2.6176-5.8912 1.3355 6.3067 6.4117 0.66895-5.5853 3.219z" sodipodi:r1="8.86798" inkscape:flatsided="false" transform="matrix(.36337 -.036418 .036476 .36279 -104.63 .35850)" sodipodi:arg2="1.6755161" sodipodi:arg1="1.0471976" inkscape:randomized="0" sodipodi:cy="-13.716982" sodipodi:cx="-274.52829" inkscape:rounded="4.888913e-008" sodipodi:r2="3.3811791" sodipodi:sides="5"></path><path id="path4192" style="fill-rule:evenodd;color:#000000;fill:#ffffff" sodipodi:type="star" sodipodi:sides="5" sodipodi:r1="8.86798" sodipodi:r2="3.3811791" sodipodi:arg1="1.0471976" sodipodi:arg2="1.6755161" transform="matrix(.36337 -.036418 .036476 .36279 -117.3 .35850)" inkscape:randomized="0" sodipodi:cy="-13.716982" sodipodi:cx="-274.52829" inkscape:rounded="4.888913e-008" inkscape:flatsided="false" d="m-270.09-6.0371-4.7874-4.3172-5.5804 3.2275 2.6266-5.8872-4.794-4.3099 6.4107 0.67875 2.6176-5.8912 1.3355 6.3067 6.4117 0.66895-5.5853 3.219z"></path><path id="path4194" style="fill-rule:evenodd;color:#000000;fill:#ffffff" sodipodi:type="star" d="m-270.09-6.0371-4.7874-4.3172-5.5804 3.2275 2.6266-5.8872-4.794-4.3099 6.4107 0.67875 2.6176-5.8912 1.3355 6.3067 6.4117 0.66895-5.5853 3.219z" sodipodi:r1="8.86798" inkscape:flatsided="false" transform="matrix(.36337 -.036418 .036476 .36279 -129.96 .35850)" sodipodi:arg2="1.6755161" sodipodi:arg1="1.0471976" inkscape:randomized="0" sodipodi:cy="-13.716982" sodipodi:cx="-274.52829" inkscape:rounded="4.888913e-008" sodipodi:r2="3.3811791" sodipodi:sides="5"></path><path id="path4196" style="fill-rule:evenodd;color:#000000;fill:#ffffff" sodipodi:type="star" sodipodi:sides="5" sodipodi:r1="8.86798" sodipodi:r2="3.3811791" sodipodi:arg1="1.0471976" sodipodi:arg2="1.6755161" transform="matrix(.36337 -.036418 .036476 .36279 -142.63 .35850)" inkscape:randomized="0" sodipodi:cy="-13.716982" sodipodi:cx="-274.52829" inkscape:rounded="4.888913e-008" inkscape:flatsided="false" d="m-270.09-6.0371-4.7874-4.3172-5.5804 3.2275 2.6266-5.8872-4.794-4.3099 6.4107 0.67875 2.6176-5.8912 1.3355 6.3067 6.4117 0.66895-5.5853 3.219z"></path></g><g id="g4198" transform="translate(261.88 43.071)"><path id="path4200" style="fill-rule:evenodd;color:#000000;fill:#ffffff" sodipodi:type="star" d="m-270.09-6.0371-4.7874-4.3172-5.5804 3.2275 2.6266-5.8872-4.794-4.3099 6.4107 0.67875 2.6176-5.8912 1.3355 6.3067 6.4117 0.66895-5.5853 3.219z" sodipodi:r1="8.86798" inkscape:flatsided="false" transform="matrix(.36337 -.036418 .036476 .36279 -155.3 .35850)" sodipodi:arg2="1.6755161" sodipodi:arg1="1.0471976" inkscape:randomized="0" sodipodi:cy="-13.716982" sodipodi:cx="-274.52829" inkscape:rounded="4.888913e-008" sodipodi:r2="3.3811791" sodipodi:sides="5"></path><path id="path4202" style="fill-rule:evenodd;color:#000000;fill:#ffffff" sodipodi:type="star" sodipodi:sides="5" sodipodi:r1="8.86798" sodipodi:r2="3.3811791" sodipodi:arg1="1.0471976" sodipodi:arg2="1.6755161" transform="matrix(.36337 -.036418 .036476 .36279 -91.96 .35850)" inkscape:randomized="0" sodipodi:cy="-13.716982" sodipodi:cx="-274.52829" inkscape:rounded="4.888913e-008" inkscape:flatsided="false" d="m-270.09-6.0371-4.7874-4.3172-5.5804 3.2275 2.6266-5.8872-4.794-4.3099 6.4107 0.67875 2.6176-5.8912 1.3355 6.3067 6.4117 0.66895-5.5853 3.219z"></path><path id="path4204" style="fill-rule:evenodd;color:#000000;fill:#ffffff" sodipodi:type="star" sodipodi:sides="5" sodipodi:r1="8.86798" sodipodi:r2="3.3811791" sodipodi:arg1="1.0471976" sodipodi:arg2="1.6755161" transform="matrix(.36337 -.036418 .036476 .36279 -104.63 .35850)" inkscape:randomized="0" sodipodi:cy="-13.716982" sodipodi:cx="-274.52829" inkscape:rounded="4.888913e-008" inkscape:flatsided="false" d="m-270.09-6.0371-4.7874-4.3172-5.5804 3.2275 2.6266-5.8872-4.794-4.3099 6.4107 0.67875 2.6176-5.8912 1.3355 6.3067 6.4117 0.66895-5.5853 3.219z"></path><path id="path4206" style="fill-rule:evenodd;color:#000000;fill:#ffffff" sodipodi:type="star" d="m-270.09-6.0371-4.7874-4.3172-5.5804 3.2275 2.6266-5.8872-4.794-4.3099 6.4107 0.67875 2.6176-5.8912 1.3355 6.3067 6.4117 0.66895-5.5853 3.219z" sodipodi:r1="8.86798" inkscape:flatsided="false" transform="matrix(.36337 -.036418 .036476 .36279 -117.3 .35850)" sodipodi:arg2="1.6755161" sodipodi:arg1="1.0471976" inkscape:randomized="0" sodipodi:cy="-13.716982" sodipodi:cx="-274.52829" inkscape:rounded="4.888913e-008" sodipodi:r2="3.3811791" sodipodi:sides="5"></path><path id="path4208" style="fill-rule:evenodd;color:#000000;fill:#ffffff" sodipodi:type="star" sodipodi:sides="5" sodipodi:r1="8.86798" sodipodi:r2="3.3811791" sodipodi:arg1="1.0471976" sodipodi:arg2="1.6755161" transform="matrix(.36337 -.036418 .036476 .36279 -129.96 .35850)" inkscape:randomized="0" sodipodi:cy="-13.716982" sodipodi:cx="-274.52829" inkscape:rounded="4.888913e-008" inkscape:flatsided="false" d="m-270.09-6.0371-4.7874-4.3172-5.5804 3.2275 2.6266-5.8872-4.794-4.3099 6.4107 0.67875 2.6176-5.8912 1.3355 6.3067 6.4117 0.66895-5.5853 3.219z"></path><path id="path4210" style="fill-rule:evenodd;color:#000000;fill:#ffffff" sodipodi:type="star" d="m-270.09-6.0371-4.7874-4.3172-5.5804 3.2275 2.6266-5.8872-4.794-4.3099 6.4107 0.67875 2.6176-5.8912 1.3355 6.3067 6.4117 0.66895-5.5853 3.219z" sodipodi:r1="8.86798" inkscape:flatsided="false" transform="matrix(.36337 -.036418 .036476 .36279 -142.63 .35850)" sodipodi:arg2="1.6755161" sodipodi:arg1="1.0471976" inkscape:randomized="0" sodipodi:cy="-13.716982" sodipodi:cx="-274.52829" inkscape:rounded="4.888913e-008" sodipodi:r2="3.3811791" sodipodi:sides="5"></path></g><g id="g4212" transform="translate(255.55 26.919)"><path id="path4214" style="fill-rule:evenodd;color:#000000;fill:#ffffff" sodipodi:type="star" d="m-270.09-6.0371-4.7874-4.3172-5.5804 3.2275 2.6266-5.8872-4.794-4.3099 6.4107 0.67875 2.6176-5.8912 1.3355 6.3067 6.4117 0.66895-5.5853 3.219z" sodipodi:r1="8.86798" inkscape:flatsided="false" transform="matrix(.36337 -.036418 .036476 .36279 -91.96 .35850)" sodipodi:arg2="1.6755161" sodipodi:arg1="1.0471976" inkscape:randomized="0" sodipodi:cy="-13.716982" sodipodi:cx="-274.52829" inkscape:rounded="4.888913e-008" sodipodi:r2="3.3811791" sodipodi:sides="5"></path><path id="path4216" style="fill-rule:evenodd;color:#000000;fill:#ffffff" sodipodi:type="star" d="m-270.09-6.0371-4.7874-4.3172-5.5804 3.2275 2.6266-5.8872-4.794-4.3099 6.4107 0.67875 2.6176-5.8912 1.3355 6.3067 6.4117 0.66895-5.5853 3.219z" sodipodi:r1="8.86798" inkscape:flatsided="false" transform="matrix(.36337 -.036418 .036476 .36279 -104.63 .35850)" sodipodi:arg2="1.6755161" sodipodi:arg1="1.0471976" inkscape:randomized="0" sodipodi:cy="-13.716982" sodipodi:cx="-274.52829" inkscape:rounded="4.888913e-008" sodipodi:r2="3.3811791" sodipodi:sides="5"></path><path id="path4218" style="fill-rule:evenodd;color:#000000;fill:#ffffff" sodipodi:type="star" sodipodi:sides="5" sodipodi:r1="8.86798" sodipodi:r2="3.3811791" sodipodi:arg1="1.0471976" sodipodi:arg2="1.6755161" transform="matrix(.36337 -.036418 .036476 .36279 -117.3 .35850)" inkscape:randomized="0" sodipodi:cy="-13.716982" sodipodi:cx="-274.52829" inkscape:rounded="4.888913e-008" inkscape:flatsided="false" d="m-270.09-6.0371-4.7874-4.3172-5.5804 3.2275 2.6266-5.8872-4.794-4.3099 6.4107 0.67875 2.6176-5.8912 1.3355 6.3067 6.4117 0.66895-5.5853 3.219z"></path><path id="path4220" style="fill-rule:evenodd;color:#000000;fill:#ffffff" sodipodi:type="star" d="m-270.09-6.0371-4.7874-4.3172-5.5804 3.2275 2.6266-5.8872-4.794-4.3099 6.4107 0.67875 2.6176-5.8912 1.3355 6.3067 6.4117 0.66895-5.5853 3.219z" sodipodi:r1="8.86798" inkscape:flatsided="false" transform="matrix(.36337 -.036418 .036476 .36279 -129.96 .35850)" sodipodi:arg2="1.6755161" sodipodi:arg1="1.0471976" inkscape:randomized="0" sodipodi:cy="-13.716982" sodipodi:cx="-274.52829" inkscape:rounded="4.888913e-008" sodipodi:r2="3.3811791" sodipodi:sides="5"></path><path id="path4222" style="fill-rule:evenodd;color:#000000;fill:#ffffff" sodipodi:type="star" sodipodi:sides="5" sodipodi:r1="8.86798" sodipodi:r2="3.3811791" sodipodi:arg1="1.0471976" sodipodi:arg2="1.6755161" transform="matrix(.36337 -.036418 .036476 .36279 -142.63 .35850)" inkscape:randomized="0" sodipodi:cy="-13.716982" sodipodi:cx="-274.52829" inkscape:rounded="4.888913e-008" inkscape:flatsided="false" d="m-270.09-6.0371-4.7874-4.3172-5.5804 3.2275 2.6266-5.8872-4.794-4.3099 6.4107 0.67875 2.6176-5.8912 1.3355 6.3067 6.4117 0.66895-5.5853 3.219z"></path></g><g id="g4224" transform="translate(255.55 5.3838)"><path id="path4226" style="fill-rule:evenodd;color:#000000;fill:#ffffff" sodipodi:type="star" sodipodi:sides="5" sodipodi:r1="8.86798" sodipodi:r2="3.3811791" sodipodi:arg1="1.0471976" sodipodi:arg2="1.6755161" transform="matrix(.36337 -.036418 .036476 .36279 -91.96 .35850)" inkscape:randomized="0" sodipodi:cy="-13.716982" sodipodi:cx="-274.52829" inkscape:rounded="4.888913e-008" inkscape:flatsided="false" d="m-270.09-6.0371-4.7874-4.3172-5.5804 3.2275 2.6266-5.8872-4.794-4.3099 6.4107 0.67875 2.6176-5.8912 1.3355 6.3067 6.4117 0.66895-5.5853 3.219z"></path><path id="path4228" style="fill-rule:evenodd;color:#000000;fill:#ffffff" sodipodi:type="star" sodipodi:sides="5" sodipodi:r1="8.86798" sodipodi:r2="3.3811791" sodipodi:arg1="1.0471976" sodipodi:arg2="1.6755161" transform="matrix(.36337 -.036418 .036476 .36279 -104.63 .35850)" inkscape:randomized="0" sodipodi:cy="-13.716982" sodipodi:cx="-274.52829" inkscape:rounded="4.888913e-008" inkscape:flatsided="false" d="m-270.09-6.0371-4.7874-4.3172-5.5804 3.2275 2.6266-5.8872-4.794-4.3099 6.4107 0.67875 2.6176-5.8912 1.3355 6.3067 6.4117 0.66895-5.5853 3.219z"></path><path id="path4230" style="fill-rule:evenodd;color:#000000;fill:#ffffff" sodipodi:type="star" d="m-270.09-6.0371-4.7874-4.3172-5.5804 3.2275 2.6266-5.8872-4.794-4.3099 6.4107 0.67875 2.6176-5.8912 1.3355 6.3067 6.4117 0.66895-5.5853 3.219z" sodipodi:r1="8.86798" inkscape:flatsided="false" transform="matrix(.36337 -.036418 .036476 .36279 -117.3 .35850)" sodipodi:arg2="1.6755161" sodipodi:arg1="1.0471976" inkscape:randomized="0" sodipodi:cy="-13.716982" sodipodi:cx="-274.52829" inkscape:rounded="4.888913e-008" sodipodi:r2="3.3811791" sodipodi:sides="5"></path><path id="path4232" style="fill-rule:evenodd;color:#000000;fill:#ffffff" sodipodi:type="star" sodipodi:sides="5" sodipodi:r1="8.86798" sodipodi:r2="3.3811791" sodipodi:arg1="1.0471976" sodipodi:arg2="1.6755161" transform="matrix(.36337 -.036418 .036476 .36279 -129.96 .35850)" inkscape:randomized="0" sodipodi:cy="-13.716982" sodipodi:cx="-274.52829" inkscape:rounded="4.888913e-008" inkscape:flatsided="false" d="m-270.09-6.0371-4.7874-4.3172-5.5804 3.2275 2.6266-5.8872-4.794-4.3099 6.4107 0.67875 2.6176-5.8912 1.3355 6.3067 6.4117 0.66895-5.5853 3.219z"></path><path id="path4234" style="fill-rule:evenodd;color:#000000;fill:#ffffff" sodipodi:type="star" d="m-270.09-6.0371-4.7874-4.3172-5.5804 3.2275 2.6266-5.8872-4.794-4.3099 6.4107 0.67875 2.6176-5.8912 1.3355 6.3067 6.4117 0.66895-5.5853 3.219z" sodipodi:r1="8.86798" inkscape:flatsided="false" transform="matrix(.36337 -.036418 .036476 .36279 -142.63 .35850)" sodipodi:arg2="1.6755161" sodipodi:arg1="1.0471976" inkscape:randomized="0" sodipodi:cy="-13.716982" sodipodi:cx="-274.52829" inkscape:rounded="4.888913e-008" sodipodi:r2="3.3811791" sodipodi:sides="5"></path></g><g id="g4236" transform="translate(255.55 37.687)"><path id="path4238" style="fill-rule:evenodd;color:#000000;fill:#ffffff" sodipodi:type="star" d="m-270.09-6.0371-4.7874-4.3172-5.5804 3.2275 2.6266-5.8872-4.794-4.3099 6.4107 0.67875 2.6176-5.8912 1.3355 6.3067 6.4117 0.66895-5.5853 3.219z" sodipodi:r1="8.86798" inkscape:flatsided="false" transform="matrix(.36337 -.036418 .036476 .36279 -91.96 .35850)" sodipodi:arg2="1.6755161" sodipodi:arg1="1.0471976" inkscape:randomized="0" sodipodi:cy="-13.716982" sodipodi:cx="-274.52829" inkscape:rounded="4.888913e-008" sodipodi:r2="3.3811791" sodipodi:sides="5"></path><path id="path4240" style="fill-rule:evenodd;color:#000000;fill:#ffffff" sodipodi:type="star" d="m-270.09-6.0371-4.7874-4.3172-5.5804 3.2275 2.6266-5.8872-4.794-4.3099 6.4107 0.67875 2.6176-5.8912 1.3355 6.3067 6.4117 0.66895-5.5853 3.219z" sodipodi:r1="8.86798" inkscape:flatsided="false" transform="matrix(.36337 -.036418 .036476 .36279 -104.63 .35850)" sodipodi:arg2="1.6755161" sodipodi:arg1="1.0471976" inkscape:randomized="0" sodipodi:cy="-13.716982" sodipodi:cx="-274.52829" inkscape:rounded="4.888913e-008" sodipodi:r2="3.3811791" sodipodi:sides="5"></path><path id="path4242" style="fill-rule:evenodd;color:#000000;fill:#ffffff" sodipodi:type="star" sodipodi:sides="5" sodipodi:r1="8.86798" sodipodi:r2="3.3811791" sodipodi:arg1="1.0471976" sodipodi:arg2="1.6755161" transform="matrix(.36337 -.036418 .036476 .36279 -117.3 .35850)" inkscape:randomized="0" sodipodi:cy="-13.716982" sodipodi:cx="-274.52829" inkscape:rounded="4.888913e-008" inkscape:flatsided="false" d="m-270.09-6.0371-4.7874-4.3172-5.5804 3.2275 2.6266-5.8872-4.794-4.3099 6.4107 0.67875 2.6176-5.8912 1.3355 6.3067 6.4117 0.66895-5.5853 3.219z"></path><path id="path4244" style="fill-rule:evenodd;color:#000000;fill:#ffffff" sodipodi:type="star" d="m-270.09-6.0371-4.7874-4.3172-5.5804 3.2275 2.6266-5.8872-4.794-4.3099 6.4107 0.67875 2.6176-5.8912 1.3355 6.3067 6.4117 0.66895-5.5853 3.219z" sodipodi:r1="8.86798" inkscape:flatsided="false" transform="matrix(.36337 -.036418 .036476 .36279 -129.96 .35850)" sodipodi:arg2="1.6755161" sodipodi:arg1="1.0471976" inkscape:randomized="0" sodipodi:cy="-13.716982" sodipodi:cx="-274.52829" inkscape:rounded="4.888913e-008" sodipodi:r2="3.3811791" sodipodi:sides="5"></path><path id="path4246" style="fill-rule:evenodd;color:#000000;fill:#ffffff" sodipodi:type="star" sodipodi:sides="5" sodipodi:r1="8.86798" sodipodi:r2="3.3811791" sodipodi:arg1="1.0471976" sodipodi:arg2="1.6755161" transform="matrix(.36337 -.036418 .036476 .36279 -142.63 .35850)" inkscape:randomized="0" sodipodi:cy="-13.716982" sodipodi:cx="-274.52829" inkscape:rounded="4.888913e-008" inkscape:flatsided="false" d="m-270.09-6.0371-4.7874-4.3172-5.5804 3.2275 2.6266-5.8872-4.794-4.3099 6.4107 0.67875 2.6176-5.8912 1.3355 6.3067 6.4117 0.66895-5.5853 3.219z"></path></g><g id="g4248" transform="translate(261.88 21.535)"><path id="path4250" style="fill-rule:evenodd;color:#000000;fill:#ffffff" sodipodi:type="star" d="m-270.09-6.0371-4.7874-4.3172-5.5804 3.2275 2.6266-5.8872-4.794-4.3099 6.4107 0.67875 2.6176-5.8912 1.3355 6.3067 6.4117 0.66895-5.5853 3.219z" sodipodi:r1="8.86798" inkscape:flatsided="false" transform="matrix(.36337 -.036418 .036476 .36279 -155.3 .35850)" sodipodi:arg2="1.6755161" sodipodi:arg1="1.0471976" inkscape:randomized="0" sodipodi:cy="-13.716982" sodipodi:cx="-274.52829" inkscape:rounded="4.888913e-008" sodipodi:r2="3.3811791" sodipodi:sides="5"></path><path id="path4252" style="fill-rule:evenodd;color:#000000;fill:#ffffff" sodipodi:type="star" sodipodi:sides="5" sodipodi:r1="8.86798" sodipodi:r2="3.3811791" sodipodi:arg1="1.0471976" sodipodi:arg2="1.6755161" transform="matrix(.36337 -.036418 .036476 .36279 -91.96 .35850)" inkscape:randomized="0" sodipodi:cy="-13.716982" sodipodi:cx="-274.52829" inkscape:rounded="4.888913e-008" inkscape:flatsided="false" d="m-270.09-6.0371-4.7874-4.3172-5.5804 3.2275 2.6266-5.8872-4.794-4.3099 6.4107 0.67875 2.6176-5.8912 1.3355 6.3067 6.4117 0.66895-5.5853 3.219z"></path><path id="path4254" style="fill-rule:evenodd;color:#000000;fill:#ffffff" sodipodi:type="star" sodipodi:sides="5" sodipodi:r1="8.86798" sodipodi:r2="3.3811791" sodipodi:arg1="1.0471976" sodipodi:arg2="1.6755161" transform="matrix(.36337 -.036418 .036476 .36279 -104.63 .35850)" inkscape:randomized="0" sodipodi:cy="-13.716982" sodipodi:cx="-274.52829" inkscape:rounded="4.888913e-008" inkscape:flatsided="false" d="m-270.09-6.0371-4.7874-4.3172-5.5804 3.2275 2.6266-5.8872-4.794-4.3099 6.4107 0.67875 2.6176-5.8912 1.3355 6.3067 6.4117 0.66895-5.5853 3.219z"></path><path id="path4256" style="fill-rule:evenodd;color:#000000;fill:#ffffff" sodipodi:type="star" d="m-270.09-6.0371-4.7874-4.3172-5.5804 3.2275 2.6266-5.8872-4.794-4.3099 6.4107 0.67875 2.6176-5.8912 1.3355 6.3067 6.4117 0.66895-5.5853 3.219z" sodipodi:r1="8.86798" inkscape:flatsided="false" transform="matrix(.36337 -.036418 .036476 .36279 -117.3 .35850)" sodipodi:arg2="1.6755161" sodipodi:arg1="1.0471976" inkscape:randomized="0" sodipodi:cy="-13.716982" sodipodi:cx="-274.52829" inkscape:rounded="4.888913e-008" sodipodi:r2="3.3811791" sodipodi:sides="5"></path><path id="path4258" style="fill-rule:evenodd;color:#000000;fill:#ffffff" sodipodi:type="star" sodipodi:sides="5" sodipodi:r1="8.86798" sodipodi:r2="3.3811791" sodipodi:arg1="1.0471976" sodipodi:arg2="1.6755161" transform="matrix(.36337 -.036418 .036476 .36279 -129.96 .35850)" inkscape:randomized="0" sodipodi:cy="-13.716982" sodipodi:cx="-274.52829" inkscape:rounded="4.888913e-008" inkscape:flatsided="false" d="m-270.09-6.0371-4.7874-4.3172-5.5804 3.2275 2.6266-5.8872-4.794-4.3099 6.4107 0.67875 2.6176-5.8912 1.3355 6.3067 6.4117 0.66895-5.5853 3.219z"></path><path id="path4260" style="fill-rule:evenodd;color:#000000;fill:#ffffff" sodipodi:type="star" d="m-270.09-6.0371-4.7874-4.3172-5.5804 3.2275 2.6266-5.8872-4.794-4.3099 6.4107 0.67875 2.6176-5.8912 1.3355 6.3067 6.4117 0.66895-5.5853 3.219z" sodipodi:r1="8.86798" inkscape:flatsided="false" transform="matrix(.36337 -.036418 .036476 .36279 -142.63 .35850)" sodipodi:arg2="1.6755161" sodipodi:arg1="1.0471976" inkscape:randomized="0" sodipodi:cy="-13.716982" sodipodi:cx="-274.52829" inkscape:rounded="4.888913e-008" sodipodi:r2="3.3811791" sodipodi:sides="5"></path></g><g id="g4262" transform="translate(261.88 32.303)"><path id="path4264" style="fill-rule:evenodd;color:#000000;fill:#ffffff" sodipodi:type="star" sodipodi:sides="5" sodipodi:r1="8.86798" sodipodi:r2="3.3811791" sodipodi:arg1="1.0471976" sodipodi:arg2="1.6755161" transform="matrix(.36337 -.036418 .036476 .36279 -155.3 .35850)" inkscape:randomized="0" sodipodi:cy="-13.716982" sodipodi:cx="-274.52829" inkscape:rounded="4.888913e-008" inkscape:flatsided="false" d="m-270.09-6.0371-4.7874-4.3172-5.5804 3.2275 2.6266-5.8872-4.794-4.3099 6.4107 0.67875 2.6176-5.8912 1.3355 6.3067 6.4117 0.66895-5.5853 3.219z"></path><path id="path4266" style="fill-rule:evenodd;color:#000000;fill:#ffffff" sodipodi:type="star" d="m-270.09-6.0371-4.7874-4.3172-5.5804 3.2275 2.6266-5.8872-4.794-4.3099 6.4107 0.67875 2.6176-5.8912 1.3355 6.3067 6.4117 0.66895-5.5853 3.219z" sodipodi:r1="8.86798" inkscape:flatsided="false" transform="matrix(.36337 -.036418 .036476 .36279 -91.96 .35850)" sodipodi:arg2="1.6755161" sodipodi:arg1="1.0471976" inkscape:randomized="0" sodipodi:cy="-13.716982" sodipodi:cx="-274.52829" inkscape:rounded="4.888913e-008" sodipodi:r2="3.3811791" sodipodi:sides="5"></path><path id="path4268" style="fill-rule:evenodd;color:#000000;fill:#ffffff" sodipodi:type="star" d="m-270.09-6.0371-4.7874-4.3172-5.5804 3.2275 2.6266-5.8872-4.794-4.3099 6.4107 0.67875 2.6176-5.8912 1.3355 6.3067 6.4117 0.66895-5.5853 3.219z" sodipodi:r1="8.86798" inkscape:flatsided="false" transform="matrix(.36337 -.036418 .036476 .36279 -104.63 .35850)" sodipodi:arg2="1.6755161" sodipodi:arg1="1.0471976" inkscape:randomized="0" sodipodi:cy="-13.716982" sodipodi:cx="-274.52829" inkscape:rounded="4.888913e-008" sodipodi:r2="3.3811791" sodipodi:sides="5"></path><path id="path4270" style="fill-rule:evenodd;color:#000000;fill:#ffffff" sodipodi:type="star" sodipodi:sides="5" sodipodi:r1="8.86798" sodipodi:r2="3.3811791" sodipodi:arg1="1.0471976" sodipodi:arg2="1.6755161" transform="matrix(.36337 -.036418 .036476 .36279 -117.3 .35850)" inkscape:randomized="0" sodipodi:cy="-13.716982" sodipodi:cx="-274.52829" inkscape:rounded="4.888913e-008" inkscape:flatsided="false" d="m-270.09-6.0371-4.7874-4.3172-5.5804 3.2275 2.6266-5.8872-4.794-4.3099 6.4107 0.67875 2.6176-5.8912 1.3355 6.3067 6.4117 0.66895-5.5853 3.219z"></path><path id="path4272" style="fill-rule:evenodd;color:#000000;fill:#ffffff" sodipodi:type="star" d="m-270.09-6.0371-4.7874-4.3172-5.5804 3.2275 2.6266-5.8872-4.794-4.3099 6.4107 0.67875 2.6176-5.8912 1.3355 6.3067 6.4117 0.66895-5.5853 3.219z" sodipodi:r1="8.86798" inkscape:flatsided="false" transform="matrix(.36337 -.036418 .036476 .36279 -129.96 .35850)" sodipodi:arg2="1.6755161" sodipodi:arg1="1.0471976" inkscape:randomized="0" sodipodi:cy="-13.716982" sodipodi:cx="-274.52829" inkscape:rounded="4.888913e-008" sodipodi:r2="3.3811791" sodipodi:sides="5"></path><path id="path4274" style="fill-rule:evenodd;color:#000000;fill:#ffffff" sodipodi:type="star" sodipodi:sides="5" sodipodi:r1="8.86798" sodipodi:r2="3.3811791" sodipodi:arg1="1.0471976" sodipodi:arg2="1.6755161" transform="matrix(.36337 -.036418 .036476 .36279 -142.63 .35850)" inkscape:randomized="0" sodipodi:cy="-13.716982" sodipodi:cx="-274.52829" inkscape:rounded="4.888913e-008" inkscape:flatsided="false" d="m-270.09-6.0371-4.7874-4.3172-5.5804 3.2275 2.6266-5.8872-4.794-4.3099 6.4107 0.67875 2.6176-5.8912 1.3355 6.3067 6.4117 0.66895-5.5853 3.219z"></path></g><g id="g4276" transform="translate(261.88 10.768)"><path id="path4278" style="fill-rule:evenodd;color:#000000;fill:#ffffff" sodipodi:type="star" sodipodi:sides="5" sodipodi:r1="8.86798" sodipodi:r2="3.3811791" sodipodi:arg1="1.0471976" sodipodi:arg2="1.6755161" transform="matrix(.36337 -.036418 .036476 .36279 -155.3 .35850)" inkscape:randomized="0" sodipodi:cy="-13.716982" sodipodi:cx="-274.52829" inkscape:rounded="4.888913e-008" inkscape:flatsided="false" d="m-270.09-6.0371-4.7874-4.3172-5.5804 3.2275 2.6266-5.8872-4.794-4.3099 6.4107 0.67875 2.6176-5.8912 1.3355 6.3067 6.4117 0.66895-5.5853 3.219z"></path><path id="path4280" style="fill-rule:evenodd;color:#000000;fill:#ffffff" sodipodi:type="star" d="m-270.09-6.0371-4.7874-4.3172-5.5804 3.2275 2.6266-5.8872-4.794-4.3099 6.4107 0.67875 2.6176-5.8912 1.3355 6.3067 6.4117 0.66895-5.5853 3.219z" sodipodi:r1="8.86798" inkscape:flatsided="false" transform="matrix(.36337 -.036418 .036476 .36279 -91.96 .35850)" sodipodi:arg2="1.6755161" sodipodi:arg1="1.0471976" inkscape:randomized="0" sodipodi:cy="-13.716982" sodipodi:cx="-274.52829" inkscape:rounded="4.888913e-008" sodipodi:r2="3.3811791" sodipodi:sides="5"></path><path id="path4282" style="fill-rule:evenodd;color:#000000;fill:#ffffff" sodipodi:type="star" d="m-270.09-6.0371-4.7874-4.3172-5.5804 3.2275 2.6266-5.8872-4.794-4.3099 6.4107 0.67875 2.6176-5.8912 1.3355 6.3067 6.4117 0.66895-5.5853 3.219z" sodipodi:r1="8.86798" inkscape:flatsided="false" transform="matrix(.36337 -.036418 .036476 .36279 -104.63 .35850)" sodipodi:arg2="1.6755161" sodipodi:arg1="1.0471976" inkscape:randomized="0" sodipodi:cy="-13.716982" sodipodi:cx="-274.52829" inkscape:rounded="4.888913e-008" sodipodi:r2="3.3811791" sodipodi:sides="5"></path><path id="path4284" style="fill-rule:evenodd;color:#000000;fill:#ffffff" sodipodi:type="star" sodipodi:sides="5" sodipodi:r1="8.86798" sodipodi:r2="3.3811791" sodipodi:arg1="1.0471976" sodipodi:arg2="1.6755161" transform="matrix(.36337 -.036418 .036476 .36279 -117.3 .35850)" inkscape:randomized="0" sodipodi:cy="-13.716982" sodipodi:cx="-274.52829" inkscape:rounded="4.888913e-008" inkscape:flatsided="false" d="m-270.09-6.0371-4.7874-4.3172-5.5804 3.2275 2.6266-5.8872-4.794-4.3099 6.4107 0.67875 2.6176-5.8912 1.3355 6.3067 6.4117 0.66895-5.5853 3.219z"></path><path id="path4286" style="fill-rule:evenodd;color:#000000;fill:#ffffff" sodipodi:type="star" d="m-270.09-6.0371-4.7874-4.3172-5.5804 3.2275 2.6266-5.8872-4.794-4.3099 6.4107 0.67875 2.6176-5.8912 1.3355 6.3067 6.4117 0.66895-5.5853 3.219z" sodipodi:r1="8.86798" inkscape:flatsided="false" transform="matrix(.36337 -.036418 .036476 .36279 -129.96 .35850)" sodipodi:arg2="1.6755161" sodipodi:arg1="1.0471976" inkscape:randomized="0" sodipodi:cy="-13.716982" sodipodi:cx="-274.52829" inkscape:rounded="4.888913e-008" sodipodi:r2="3.3811791" sodipodi:sides="5"></path><path id="path4288" style="fill-rule:evenodd;color:#000000;fill:#ffffff" sodipodi:type="star" sodipodi:sides="5" sodipodi:r1="8.86798" sodipodi:r2="3.3811791" sodipodi:arg1="1.0471976" sodipodi:arg2="1.6755161" transform="matrix(.36337 -.036418 .036476 .36279 -142.63 .35850)" inkscape:randomized="0" sodipodi:cy="-13.716982" sodipodi:cx="-274.52829" inkscape:rounded="4.888913e-008" inkscape:flatsided="false" d="m-270.09-6.0371-4.7874-4.3172-5.5804 3.2275 2.6266-5.8872-4.794-4.3099 6.4107 0.67875 2.6176-5.8912 1.3355 6.3067 6.4117 0.66895-5.5853 3.219z"></path></g><g id="g4290" transform="translate(255.55 16.152)"><path id="path4292" style="fill-rule:evenodd;color:#000000;fill:#ffffff" sodipodi:type="star" d="m-270.09-6.0371-4.7874-4.3172-5.5804 3.2275 2.6266-5.8872-4.794-4.3099 6.4107 0.67875 2.6176-5.8912 1.3355 6.3067 6.4117 0.66895-5.5853 3.219z" sodipodi:r1="8.86798" inkscape:flatsided="false" transform="matrix(.36337 -.036418 .036476 .36279 -91.96 .35850)" sodipodi:arg2="1.6755161" sodipodi:arg1="1.0471976" inkscape:randomized="0" sodipodi:cy="-13.716982" sodipodi:cx="-274.52829" inkscape:rounded="4.888913e-008" sodipodi:r2="3.3811791" sodipodi:sides="5"></path><path id="path4294" style="fill-rule:evenodd;color:#000000;fill:#ffffff" sodipodi:type="star" d="m-270.09-6.0371-4.7874-4.3172-5.5804 3.2275 2.6266-5.8872-4.794-4.3099 6.4107 0.67875 2.6176-5.8912 1.3355 6.3067 6.4117 0.66895-5.5853 3.219z" sodipodi:r1="8.86798" inkscape:flatsided="false" transform="matrix(.36337 -.036418 .036476 .36279 -104.63 .35850)" sodipodi:arg2="1.6755161" sodipodi:arg1="1.0471976" inkscape:randomized="0" sodipodi:cy="-13.716982" sodipodi:cx="-274.52829" inkscape:rounded="4.888913e-008" sodipodi:r2="3.3811791" sodipodi:sides="5"></path><path id="path4296" style="fill-rule:evenodd;color:#000000;fill:#ffffff" sodipodi:type="star" sodipodi:sides="5" sodipodi:r1="8.86798" sodipodi:r2="3.3811791" sodipodi:arg1="1.0471976" sodipodi:arg2="1.6755161" transform="matrix(.36337 -.036418 .036476 .36279 -117.3 .35850)" inkscape:randomized="0" sodipodi:cy="-13.716982" sodipodi:cx="-274.52829" inkscape:rounded="4.888913e-008" inkscape:flatsided="false" d="m-270.09-6.0371-4.7874-4.3172-5.5804 3.2275 2.6266-5.8872-4.794-4.3099 6.4107 0.67875 2.6176-5.8912 1.3355 6.3067 6.4117 0.66895-5.5853 3.219z"></path><path id="path4298" style="fill-rule:evenodd;color:#000000;fill:#ffffff" sodipodi:type="star" d="m-270.09-6.0371-4.7874-4.3172-5.5804 3.2275 2.6266-5.8872-4.794-4.3099 6.4107 0.67875 2.6176-5.8912 1.3355 6.3067 6.4117 0.66895-5.5853 3.219z" sodipodi:r1="8.86798" inkscape:flatsided="false" transform="matrix(.36337 -.036418 .036476 .36279 -129.96 .35850)" sodipodi:arg2="1.6755161" sodipodi:arg1="1.0471976" inkscape:randomized="0" sodipodi:cy="-13.716982" sodipodi:cx="-274.52829" inkscape:rounded="4.888913e-008" sodipodi:r2="3.3811791" sodipodi:sides="5"></path><path id="path4300" style="fill-rule:evenodd;color:#000000;fill:#ffffff" sodipodi:type="star" sodipodi:sides="5" sodipodi:r1="8.86798" sodipodi:r2="3.3811791" sodipodi:arg1="1.0471976" sodipodi:arg2="1.6755161" transform="matrix(.36337 -.036418 .036476 .36279 -142.63 .35850)" inkscape:randomized="0" sodipodi:cy="-13.716982" sodipodi:cx="-274.52829" inkscape:rounded="4.888913e-008" inkscape:flatsided="false" d="m-270.09-6.0371-4.7874-4.3172-5.5804 3.2275 2.6266-5.8872-4.794-4.3099 6.4107 0.67875 2.6176-5.8912 1.3355 6.3067 6.4117 0.66895-5.5853 3.219z"></path></g><metadata></metadata></svg> 